<?xml version="1.0" encoding="UTF-8"?>
<svg width="43px" height="47px" viewBox="0 0 43 47" version="1.1" xmlns="http://www.w3.org/2000/svg" xmlns:xlink="http://www.w3.org/1999/xlink">
    <title>filtering</title>
    <g id="main" stroke="none" stroke-width="1" fill="none" fill-rule="evenodd">
        <g id="bride-about-icons" transform="translate(-1037.000000, -119.000000)" fill="#E31257" fill-rule="nonzero">
            <path d="M1058.70898,165.771484 C1059.00846,165.771484 1059.31169,165.715332 1059.61865,165.603027 C1059.92562,165.490723 1060.26628,165.322266 1060.64062,165.097656 L1077.75586,155.192383 C1078.33984,154.847982 1078.77409,154.514811 1079.05859,154.192871 C1079.3431,153.870931 1079.48535,153.485352 1079.48535,153.036133 C1079.48535,152.586914 1079.3431,152.201335 1079.05859,151.879395 C1078.77409,151.557454 1078.33984,151.224284 1077.75586,150.879883 L1072.737,147.967 L1077.75586,145.0625 C1078.33984,144.718099 1078.77409,144.384928 1079.05859,144.062988 C1079.3431,143.741048 1079.48535,143.355469 1079.48535,142.90625 C1079.48535,142.457031 1079.3431,142.071452 1079.05859,141.749512 C1078.77409,141.427572 1078.33984,141.094401 1077.75586,140.75 L1072.292,137.594 L1077.75586,134.438477 C1078.33984,134.079102 1078.77409,133.742188 1079.05859,133.427734 C1079.3431,133.113281 1079.48535,132.731445 1079.48535,132.282227 C1079.48535,131.833008 1079.3431,131.447428 1079.05859,131.125488 C1078.77409,130.803548 1078.33984,130.462891 1077.75586,130.103516 L1060.64062,120.220703 C1060.26628,119.996094 1059.92562,119.83138 1059.61865,119.726562 C1059.31169,119.621745 1059.00846,119.569336 1058.70898,119.569336 C1058.39453,119.569336 1058.08757,119.621745 1057.78809,119.726562 C1057.48861,119.83138 1057.15169,119.996094 1056.77734,120.220703 L1039.66211,130.103516 C1039.06315,130.462891 1038.62516,130.803548 1038.34814,131.125488 C1038.07113,131.447428 1037.93262,131.833008 1037.93262,132.282227 C1037.93262,132.731445 1038.07113,133.113281 1038.34814,133.427734 C1038.62516,133.742188 1039.06315,134.079102 1039.66211,134.438477 L1045.131,137.597 L1039.66211,140.75 C1039.06315,141.094401 1038.62516,141.427572 1038.34814,141.749512 C1038.07113,142.071452 1037.93262,142.457031 1037.93262,142.90625 C1037.93262,143.355469 1038.07113,143.741048 1038.34814,144.062988 C1038.62516,144.384928 1039.06315,144.718099 1039.66211,145.0625 L1044.684,147.969 L1039.66211,150.879883 C1039.06315,151.224284 1038.62516,151.557454 1038.34814,151.879395 C1038.07113,152.201335 1037.93262,152.586914 1037.93262,153.036133 C1037.93262,153.485352 1038.07113,153.870931 1038.34814,154.192871 C1038.62516,154.514811 1039.06315,154.847982 1039.66211,155.192383 L1056.77734,165.097656 C1057.15169,165.322266 1057.48861,165.490723 1057.78809,165.603027 C1058.08757,165.715332 1058.39453,165.771484 1058.70898,165.771484 Z M1058.70898,142.681641 C1058.49935,142.681641 1058.24479,142.599284 1057.94531,142.43457 L1040.94238,132.664062 C1040.73275,132.559245 1040.62793,132.431966 1040.62793,132.282227 C1040.62793,132.117513 1040.73275,131.982747 1040.94238,131.87793 L1057.94531,122.107422 C1058.24479,121.942708 1058.49935,121.860352 1058.70898,121.860352 C1058.91862,121.860352 1059.17318,121.942708 1059.47266,122.107422 L1076.47559,131.87793 C1076.67025,131.982747 1076.76758,132.117513 1076.76758,132.282227 C1076.76758,132.431966 1076.67025,132.559245 1076.47559,132.664062 L1059.47266,142.43457 C1059.17318,142.599284 1058.91862,142.681641 1058.70898,142.681641 Z M1058.70898,153.305664 C1058.49935,153.305664 1058.24479,153.223307 1057.94531,153.058594 L1040.94238,143.310547 C1040.73275,143.190755 1040.62793,143.05599 1040.62793,142.90625 C1040.62793,142.741536 1040.73275,142.606771 1040.94238,142.501953 L1047.294,138.846 L1056.77734,144.321289 C1057.15169,144.545898 1057.48861,144.714355 1057.78809,144.82666 C1058.08757,144.938965 1058.39453,144.995117 1058.70898,144.995117 C1059.00846,144.995117 1059.31169,144.938965 1059.61865,144.82666 C1059.92562,144.714355 1060.26628,144.545898 1060.64062,144.321289 L1070.104,138.857 L1076.47559,142.501953 C1076.67025,142.606771 1076.76758,142.741536 1076.76758,142.90625 C1076.76758,143.05599 1076.67025,143.190755 1076.47559,143.310547 L1059.47266,153.058594 C1059.17318,153.223307 1058.91862,153.305664 1058.70898,153.305664 Z M1058.70898,163.458008 C1058.49935,163.458008 1058.24479,163.375651 1057.94531,163.210938 L1040.94238,153.44043 C1040.73275,153.320638 1040.62793,153.185872 1040.62793,153.036133 C1040.62793,152.886393 1040.73275,152.751628 1040.94238,152.631836 L1046.858,149.228 L1056.77734,154.967773 C1057.15169,155.177409 1057.48861,155.338379 1057.78809,155.450684 C1058.08757,155.562988 1058.39453,155.619141 1058.70898,155.619141 C1059.00846,155.619141 1059.31169,155.562988 1059.61865,155.450684 C1059.92562,155.338379 1060.26628,155.177409 1060.64062,154.967773 L1070.543,149.237 L1076.47559,152.631836 C1076.67025,152.751628 1076.76758,152.886393 1076.76758,153.036133 C1076.76758,153.185872 1076.67025,153.320638 1076.47559,153.44043 L1059.47266,163.210938 C1059.17318,163.375651 1058.91862,163.458008 1058.70898,163.458008 Z" id="filtering"></path>
        </g>
    </g>
</svg>