<?xml version="1.0" encoding="UTF-8"?>
<svg width="41px" height="41px" viewBox="0 0 41 41" version="1.1" xmlns="http://www.w3.org/2000/svg" xmlns:xlink="http://www.w3.org/1999/xlink">
    <title>􀮃</title>
    <g id="Page-1" stroke="none" stroke-width="1" fill="none" fill-rule="evenodd">
        <g id="pro-bride-search-site-v1" transform="translate(-995.000000, -1235.000000)" fill="#E31257" fill-rule="nonzero">
            <g id="block-2" transform="translate(153.795898, 994.000000)">
                <g id="everything-at-a-glance" transform="translate(841.617188, 241.736328)">
                    <path d="M38.9023438,12.6455078 C39.6210938,12.6455078 39.9804688,12.2861328 39.9804688,11.5673828 L39.9804688,5.97460938 C39.9804688,4.01302083 39.4750977,2.52685547 38.4643555,1.51611328 C37.4536133,0.505371094 35.9599609,0 33.9833984,0 L28.390625,0 C27.656901,0 27.2900391,0.359375 27.2900391,1.078125 C27.2900391,1.796875 27.656901,2.15625 28.390625,2.15625 L33.9160156,2.15625 C35.1588542,2.15625 36.1246745,2.48567708 36.8134766,3.14453125 C37.5022786,3.80338542 37.8466797,4.78417969 37.8466797,6.08691406 L37.8466797,11.5673828 C37.8466797,12.2861328 38.1985677,12.6455078 38.9023438,12.6455078 Z M1.05566406,12.6455078 C1.77441406,12.6455078 2.13378906,12.2861328 2.13378906,11.5673828 L2.13378906,6.08691406 C2.13378906,4.78417969 2.46695964,3.80338542 3.13330078,3.14453125 C3.79964193,2.48567708 4.76920573,2.15625 6.04199219,2.15625 L11.5898438,2.15625 C12.3235677,2.15625 12.6904297,1.796875 12.6904297,1.078125 C12.6904297,0.359375 12.3235677,0 11.5898438,0 L5.99707031,0 C4.02050781,0 2.52685547,0.501627604 1.51611328,1.50488281 C0.505371094,2.50813802 0,3.99804688 0,5.97460938 L0,11.5673828 C0,12.2861328 0.351888021,12.6455078 1.05566406,12.6455078 Z M20.0576172,33.5791016 C20.6865234,33.5791016 21.1656901,33.2047526 21.4951172,32.4560547 L31.3554688,11.3876953 C31.5351562,10.9983724 31.625,10.6614583 31.625,10.3769531 C31.625,10.0026042 31.5014648,9.68815104 31.2543945,9.43359375 C31.0073242,9.17903646 30.6891276,9.05175781 30.2998047,9.05175781 C30.0152995,9.05175781 29.6783854,9.14160156 29.2890625,9.32128906 L8.13085938,19.2041016 C7.78645833,19.3538411 7.52441406,19.5522461 7.34472656,19.7993164 C7.16503906,20.0463867 7.07519531,20.3121745 7.07519531,20.5966797 C7.07519531,21.0159505 7.20621745,21.3453776 7.46826172,21.5849609 C7.73030599,21.8245443 8.09342448,21.9443359 8.55761719,21.9443359 L18.7099609,21.9667969 L18.7324219,32.0068359 C18.7324219,32.5009766 18.8484701,32.886556 19.0805664,33.1635742 C19.3126628,33.4405924 19.6383464,33.5791016 20.0576172,33.5791016 Z M20.5292969,30.2998047 L20.5517578,21.0908203 C20.5517578,20.7913411 20.4619141,20.5517578 20.2822266,20.3720703 C20.1025391,20.1923828 19.8554688,20.1025391 19.5410156,20.1025391 L10.3769531,20.125 L29.4462891,11.2529297 L20.5292969,30.2998047 Z M11.5898438,40.0029297 C12.3235677,40.0029297 12.6904297,39.6435547 12.6904297,38.9248047 C12.6904297,38.2210286 12.3235677,37.8691406 11.5898438,37.8691406 L6.04199219,37.8691406 C4.76920573,37.8691406 3.79964193,37.5359701 3.13330078,36.8696289 C2.46695964,36.2032878 2.13378906,35.21875 2.13378906,33.9160156 L2.13378906,28.4355469 C2.13378906,27.7167969 1.77441406,27.3574219 1.05566406,27.3574219 C0.351888021,27.3574219 0,27.7167969 0,28.4355469 L0,34.0283203 C0,36.0048828 0.505371094,37.4947917 1.51611328,38.4980469 C2.52685547,39.5013021 4.02050781,40.0029297 5.99707031,40.0029297 L11.5898438,40.0029297 Z M33.9833984,40.0029297 C35.9599609,40.0029297 37.4536133,39.4975586 38.4643555,38.4868164 C39.4750977,37.4760742 39.9804688,35.9899089 39.9804688,34.0283203 L39.9804688,28.4355469 C39.9804688,27.7167969 39.6210938,27.3574219 38.9023438,27.3574219 C38.1985677,27.3574219 37.8466797,27.7167969 37.8466797,28.4355469 L37.8466797,33.9160156 C37.8466797,35.21875 37.5022786,36.2032878 36.8134766,36.8696289 C36.1246745,37.5359701 35.1588542,37.8691406 33.9160156,37.8691406 L28.390625,37.8691406 C27.656901,37.8691406 27.2900391,38.2210286 27.2900391,38.9248047 C27.2900391,39.6435547 27.656901,40.0029297 28.390625,40.0029297 L33.9833984,40.0029297 Z" id="􀮃"></path>
                </g>
            </g>
        </g>
    </g>
</svg>