<?xml version="1.0" encoding="UTF-8"?>
<svg width="42px" height="38px" viewBox="0 0 42 38" version="1.1" xmlns="http://www.w3.org/2000/svg" xmlns:xlink="http://www.w3.org/1999/xlink">
    <title>􀊴</title>
    <g id="Page-1" stroke="none" stroke-width="1" fill="none" fill-rule="evenodd">
        <g id="pro-bride-search-site-v1" transform="translate(-154.000000, -1237.000000)" fill="#E31257" fill-rule="nonzero">
            <g id="block-2" transform="translate(153.795898, 994.000000)">
                <g id="love" transform="translate(1.100586, 243.533203)">
                    <path d="M20.3945312,37.3525391 C20.5742188,37.3525391 20.7688802,37.3076172 20.9785156,37.2177734 C21.188151,37.1279297 21.3828125,37.030599 21.5625,36.9257812 C25.3808594,34.4251302 28.735026,31.8196615 31.625,29.109375 C34.514974,26.3990885 36.7685547,23.6251628 38.3857422,20.7875977 C40.0029297,17.9500326 40.8115234,15.0712891 40.8115234,12.1513672 C40.8115234,10.3844401 40.5270182,8.75976562 39.9580078,7.27734375 C39.3889974,5.79492188 38.5878906,4.50716146 37.5546875,3.4140625 C36.5214844,2.32096354 35.3085938,1.47867839 33.9160156,0.887207031 C32.5234375,0.295735677 31.0035807,0 29.3564453,0 C27.4697266,0 25.7252604,0.467936198 24.1230469,1.40380859 C22.5208333,2.33968099 21.2779948,3.59375 20.3945312,5.16601562 C19.5260417,3.60872396 18.2906901,2.35839844 16.6884766,1.41503906 C15.086263,0.471679688 13.3417969,0 11.4550781,0 C9.80794271,0 8.28808594,0.295735677 6.89550781,0.887207031 C5.50292969,1.47867839 4.29003906,2.32096354 3.25683594,3.4140625 C2.22363281,4.50716146 1.42252604,5.79492188 0.853515625,7.27734375 C0.284505208,8.75976562 0,10.3844401 0,12.1513672 C0,15.0712891 0.80859375,17.9500326 2.42578125,20.7875977 C4.04296875,23.6251628 6.29654948,26.3990885 9.18652344,29.109375 C12.0764974,31.8196615 15.4306641,34.4251302 19.2490234,36.9257812 C19.4287109,37.030599 19.6233724,37.1279297 19.8330078,37.2177734 C20.0426432,37.3076172 20.2298177,37.3525391 20.3945312,37.3525391 Z M20.3945312,35.1064453 C20.3496094,35.1064453 20.2447917,35.0540365 20.0800781,34.9492188 C17.6542969,33.3170573 15.3632812,31.5913086 13.2070312,29.7719727 C11.0507812,27.9526367 9.14160156,26.065918 7.47949219,24.1118164 C5.81738281,22.1577148 4.51090495,20.1736654 3.56005859,18.159668 C2.60921224,16.1456706 2.13378906,14.1429036 2.13378906,12.1513672 C2.13378906,10.1748047 2.53808594,8.43408203 3.34667969,6.92919922 C4.15527344,5.42431641 5.25585938,4.24886068 6.6484375,3.40283203 C8.04101562,2.55680339 9.63574219,2.13378906 11.4326172,2.13378906 C12.7353516,2.13378906 13.8883464,2.36962891 14.8916016,2.84130859 C15.8948568,3.31298828 16.7670898,3.93066406 17.5083008,4.69433594 C18.2495117,5.45800781 18.8746745,6.28157552 19.3837891,7.16503906 C19.5784505,7.46451823 19.750651,7.67415365 19.9003906,7.79394531 C20.0501302,7.91373698 20.2148438,7.97363281 20.3945312,7.97363281 C20.5891927,7.97363281 20.7613932,7.91373698 20.9111328,7.79394531 C21.0608724,7.67415365 21.2330729,7.46451823 21.4277344,7.16503906 C21.9518229,6.29654948 22.5807292,5.48046875 23.3144531,4.71679688 C24.0481771,3.953125 24.9166667,3.33170573 25.9199219,2.85253906 C26.9231771,2.3733724 28.0761719,2.13378906 29.3789062,2.13378906 C31.1608073,2.13378906 32.7517904,2.55680339 34.1518555,3.40283203 C35.5519206,4.24886068 36.65625,5.42431641 37.4648438,6.92919922 C38.2734375,8.43408203 38.6777344,10.1748047 38.6777344,12.1513672 C38.6777344,14.1429036 38.2023112,16.1456706 37.2514648,18.159668 C36.3006185,20.1736654 34.9941406,22.1577148 33.3320312,24.1118164 C31.6699219,26.065918 29.7607422,27.9526367 27.6044922,29.7719727 C25.4482422,31.5913086 23.1572266,33.3170573 20.7314453,34.9492188 C20.5667318,35.0540365 20.4544271,35.1064453 20.3945312,35.1064453 Z" id="􀊴"></path>
                </g>
            </g>
        </g>
    </g>
</svg>