<?xml version="1.0" encoding="UTF-8"?>
<svg width="48px" height="44px" viewBox="0 0 48 44" version="1.1" xmlns="http://www.w3.org/2000/svg" xmlns:xlink="http://www.w3.org/1999/xlink">
    <title>􀜃</title>
    <g id="Page-1" stroke="none" stroke-width="1" fill="none" fill-rule="evenodd">
        <g id="pro-bride-search-site-v1" transform="translate(-153.000000, -1521.000000)" fill="#E31257" fill-rule="nonzero">
            <g id="block-2" transform="translate(153.795898, 994.000000)">
                <g id="get-chatting" transform="translate(0.000000, 527.523438)">
                    <path d="M8.84960938,42.6083984 C9.67317708,42.6083984 10.7400716,42.3875326 12.050293,41.9458008 C13.3605143,41.504069 14.7568359,40.9125977 16.2392578,40.1713867 C17.7216797,39.4301758 19.1516927,38.6178385 20.5292969,37.734375 C23.2994792,37.9589844 25.9760742,37.8317057 28.559082,37.3525391 C31.1420898,36.8733724 33.5416667,36.0909831 35.7578125,35.0053711 C37.9739583,33.9197591 39.9093424,32.5721029 41.5639648,30.9624023 C43.2185872,29.3527018 44.5138346,27.5333659 45.449707,25.5043945 C46.3855794,23.4754232 46.8535156,21.2779948 46.8535156,18.9121094 C46.8535156,16.3066406 46.2508138,13.8621419 45.0454102,11.5786133 C43.8400065,9.29508464 42.1666667,7.28483073 40.0253906,5.54785156 C37.8841146,3.8108724 35.394694,2.45198568 32.5571289,1.47119141 C29.7195638,0.490397135 26.6761068,0 23.4267578,0 C20.1624349,0 17.1152344,0.490397135 14.2851562,1.47119141 C11.4550781,2.45198568 8.96940104,3.8108724 6.828125,5.54785156 C4.68684896,7.28483073 3.01350911,9.29508464 1.80810547,11.5786133 C0.602701823,13.8621419 0,16.3066406 0,18.9121094 C0,21.203125 0.464192708,23.374349 1.39257812,25.4257812 C2.32096354,27.4772135 3.61621094,29.3264974 5.27832031,30.9736328 C6.94042969,32.6207682 8.88704427,33.9833984 11.1181641,35.0615234 C10.8037109,35.6604818 10.4331055,36.2669271 10.0063477,36.8808594 C9.57958984,37.4947917 9.16031901,38.0750326 8.74853516,38.621582 C8.3367513,39.1681315 7.97363281,39.6210938 7.65917969,39.9804688 C7.31477865,40.4147135 7.13509115,40.8339844 7.12011719,41.2382812 C7.10514323,41.6425781 7.24739583,41.9720052 7.546875,42.2265625 C7.84635417,42.4811198 8.28059896,42.6083984 8.84960938,42.6083984 Z M9.83789062,40.3623047 C9.82291667,40.3173828 9.8453776,40.257487 9.90527344,40.1826172 C10.414388,39.5537109 11.0358073,38.7713216 11.7695312,37.8354492 C12.5032552,36.8995768 13.0722656,36.0123698 13.4765625,35.1738281 C13.671224,34.8144531 13.7273763,34.4887695 13.6450195,34.1967773 C13.5626628,33.9047852 13.3268229,33.6614583 12.9375,33.4667969 C10.7213542,32.4485677 8.81217448,31.1944987 7.20996094,29.7045898 C5.6077474,28.214681 4.37613932,26.5563151 3.51513672,24.7294922 C2.65413411,22.9026693 2.22363281,20.9635417 2.22363281,18.9121094 C2.22363281,16.6061198 2.7664388,14.4423828 3.85205078,12.4208984 C4.93766276,10.3994141 6.45003255,8.62125651 8.38916016,7.08642578 C10.3282878,5.55159505 12.5818685,4.3499349 15.1499023,3.48144531 C17.7179362,2.61295573 20.476888,2.17871094 23.4267578,2.17871094 C26.3766276,2.17871094 29.1318359,2.61295573 31.6923828,3.48144531 C34.2529297,4.3499349 36.5027669,5.55159505 38.4418945,7.08642578 C40.3810221,8.62125651 41.8971354,10.3994141 42.9902344,12.4208984 C44.0833333,14.4423828 44.6298828,16.6061198 44.6298828,18.9121094 C44.6298828,21.2330729 44.0833333,23.4042969 42.9902344,25.4257812 C41.8971354,27.4472656 40.3810221,29.2291667 38.4418945,30.7714844 C36.5027669,32.3138021 34.2529297,33.5192057 31.6923828,34.3876953 C29.1318359,35.2561849 26.3766276,35.6904297 23.4267578,35.6904297 C23.007487,35.6904297 22.5657552,35.6754557 22.1015625,35.6455078 C21.6373698,35.6155599 21.1507161,35.585612 20.6416016,35.5556641 C20.3570964,35.5406901 20.0800781,35.5743815 19.8105469,35.6567383 C19.5410156,35.7390951 19.2714844,35.8701172 19.0019531,36.0498047 C17.9238281,36.7236328 16.8045247,37.367513 15.644043,37.9814453 C14.4835612,38.5953776 13.4016927,39.1232096 12.3984375,39.5649414 C11.3951823,40.0066732 10.5940755,40.2874349 9.99511719,40.4072266 C9.90527344,40.4222005 9.85286458,40.4072266 9.83789062,40.3623047 Z M23.4267578,29.4912109 C23.7412109,29.4912109 23.9920247,29.3938802 24.1791992,29.1992188 C24.3663737,29.0045573 24.4599609,28.757487 24.4599609,28.4580078 L24.4599609,15.1386719 L24.3701172,11.5449219 L26.8632812,14.2177734 L30.2324219,17.609375 C30.4270833,17.8190104 30.6741536,17.9238281 30.9736328,17.9238281 C31.2431641,17.9238281 31.4715169,17.8302409 31.6586914,17.6430664 C31.8458659,17.4558919 31.9394531,17.2275391 31.9394531,16.9580078 C31.9394531,16.6884766 31.8421224,16.4563802 31.6474609,16.2617188 L24.2128906,8.82714844 C23.9733073,8.57259115 23.711263,8.4453125 23.4267578,8.4453125 C23.1722005,8.4453125 22.9251302,8.57259115 22.6855469,8.82714844 L15.2509766,16.2617188 C15.0563151,16.4414062 14.9589844,16.6735026 14.9589844,16.9580078 C14.9589844,17.2275391 15.0525716,17.4558919 15.2397461,17.6430664 C15.4269206,17.8302409 15.6552734,17.9238281 15.9248047,17.9238281 C16.2093099,17.9238281 16.4563802,17.8190104 16.6660156,17.609375 L20.0351562,14.2177734 L22.5058594,11.5673828 L22.4160156,15.1386719 L22.4160156,28.4580078 C22.4160156,28.757487 22.5133464,29.0045573 22.7080078,29.1992188 C22.9026693,29.3938802 23.1422526,29.4912109 23.4267578,29.4912109 Z" id="􀜃"></path>
                </g>
            </g>
        </g>
    </g>
</svg>