<?xml version="1.0" encoding="UTF-8"?>
<svg width="118px" height="60px" viewBox="0 0 118 60" version="1.1" xmlns="http://www.w3.org/2000/svg" xmlns:xlink="http://www.w3.org/1999/xlink">
    <title>logo</title>
    <g id="Page-1" stroke="none" stroke-width="1" fill="none" fill-rule="evenodd">
        <g id="pro-bride-search-site-v1" transform="translate(-80.000000, -65.000000)" fill-rule="nonzero">
            <g id="logo" transform="translate(80.000000, 65.000000)">
                <path d="M29.7787475,37.446575 C28.3293152,35.8689071 26.3404846,35 24.1781921,35 C22.5619202,35 21.081726,35.5128117 19.7786255,36.5240713 C19.1210938,37.0345247 18.5252991,37.6590317 18,38.3879447 C17.4749146,37.659246 16.8789062,37.0345247 16.2211609,36.5240713 C14.918274,35.5128117 13.4380798,35 11.8218079,35 C9.65951537,35 7.67047122,35.8689071 6.2210388,37.446575 C4.7889099,39.0058056 4,41.1359465 4,43.4448856 C4,45.8213563 4.88247682,47.9967328 6.77709961,50.2910935 C8.47198489,52.3434123 10.9079285,54.4268171 13.7288208,56.8393047 C14.6920471,57.6631908 15.7838745,58.5970569 16.917572,59.5918087 C17.2170715,59.8550749 17.6013794,60 18,60 C18.398407,60 18.7829285,59.8550749 19.0820007,59.5922375 C20.2156982,58.5972713 21.3081665,57.6629764 22.2718201,56.8386615 C25.0922852,54.4266028 27.5282288,52.3434123 29.223114,50.2908792 C31.1177368,47.9967328 32,45.8213563 32,43.4446712 C32,41.1359465 31.2110901,39.0058056 29.7787475,37.446575 Z" id="Path" fill="#E31257"></path>
                <path d="M29.3426489,16.076493 C28.7048987,15.3823191 27.8298132,15 26.8784045,15 C26.1672449,15 25.5159595,15.2256372 24.9425952,15.6705914 C24.6532813,15.8951909 24.3911316,16.1699739 24.16,16.4906956 C23.9289624,16.1700683 23.6667188,15.8951909 23.3773108,15.6705914 C22.8040405,15.2256372 22.1527551,15 21.4415955,15 C20.4901868,15 19.6150073,15.3823191 18.9772571,16.076493 C18.3471204,16.7625544 18,17.6998165 18,18.7157497 C18,19.7613968 18.3882898,20.7185624 19.2219238,21.7280812 C19.9676734,22.6311014 21.0394885,23.5477995 22.2806812,24.6092941 C22.7045007,24.9718039 23.1849048,25.382705 23.6837317,25.8203958 C23.8155115,25.936233 23.9846069,26 24.16,26 C24.3352991,26 24.5044885,25.936233 24.6360803,25.8205845 C25.1349072,25.3827994 25.6155933,24.9717096 26.0396008,24.6090111 C27.2806055,23.5477052 28.3524207,22.6311014 29.0981702,21.7279868 C29.9318042,20.7185624 30.32,19.7613968 30.32,18.7156553 C30.32,17.6998165 29.9728796,16.7625544 29.3426489,16.076493 Z" id="Path" fill="#E31257"></path>
                <path d="M8.24919921,2.78290399 C7.78538086,2.27805028 7.14895508,2 6.45702148,2 C5.93981446,2 5.46615234,2.16409975 5.04916017,2.4877028 C4.83875,2.65104791 4.64809571,2.85089014 4.48,3.08414229 C4.31197267,2.85095873 4.12125,2.65104791 3.91077148,2.4877028 C3.49384767,2.16409975 3.02018554,2 2.50297852,2 C1.81104492,2 1.17455079,2.27805028 0.710732418,2.78290399 C0.252451168,3.28185778 0,3.96350289 0,4.7023634 C0,5.46283401 0.282392583,6.15895449 0.888671875,6.89314993 C1.43103517,7.54989194 2.21053711,8.21658148 3.11322267,8.9885775 C3.42145508,9.25222104 3.77083984,9.55105821 4.13362304,9.86937879 C4.2294629,9.95362398 4.35244142,10 4.48,10 C4.60749023,10 4.73053711,9.95362398 4.82624023,9.86951601 C5.18902344,9.55112681 5.53861329,9.25215244 5.84698242,8.98837169 C6.74953125,8.21651288 7.52903321,7.54989194 8.07139648,6.89308133 C8.67767579,6.15895449 8.96,5.46283401 8.96,4.7022948 C8.96,3.96350289 8.70754883,3.28185778 8.24919921,2.78290399 Z" id="Path" fill="#E31257"></path>
                <g id="Group" transform="translate(42.000000, 0.000000)">
                    <path d="M2.576,11 L2.576,6.856 L3.332,6.856 C5.474,6.856 6.468,6.03 6.468,3.874 C6.468,1.718 5.474,0.892 3.332,0.892 L0.84,0.892 L0.84,11 L2.576,11 Z M3.248,5.428 L2.576,5.428 L2.576,2.32 L3.248,2.32 C4.382,2.32 4.732,2.67 4.732,3.874 C4.732,5.078 4.382,5.428 3.248,5.428 Z M9.576,11 L9.576,6.856 C9.884,6.856 10.248,6.842 10.472,6.814 L11.704,11 L13.468,11 L11.998,6.422 C12.586,6.156 13.216,5.498 13.216,3.874 C13.216,1.718 12.222,0.892 10.276,0.892 L7.84,0.892 L7.84,11 L9.576,11 Z M10.192,5.428 L9.576,5.428 L9.576,2.32 L10.192,2.32 C11.13,2.32 11.48,2.67 11.48,3.874 C11.48,5.078 11.13,5.428 10.192,5.428 Z M17.5,11.14 C19.32,11.14 20.16,9.978 20.16,8.55 L20.16,3.342 C20.16,1.914 19.32,0.752 17.5,0.752 C15.68,0.752 14.84,1.914 14.84,3.342 L14.84,8.55 C14.84,9.978 15.68,11.14 17.5,11.14 Z M17.5,9.628 C16.8,9.628 16.576,9.264 16.576,8.508 L16.576,3.384 C16.576,2.628 16.8,2.264 17.5,2.264 C18.2,2.264 18.424,2.628 18.424,3.384 L18.424,8.508 C18.424,9.264 18.2,9.628 17.5,9.628 Z M23.576,11 L23.576,6.52 L25.9,6.52 L25.9,5.008 L23.576,5.008 L23.576,2.404 L26.684,2.404 L26.684,0.892 L21.84,0.892 L21.84,11 L23.576,11 Z M32.9,11 L32.9,9.488 L29.792,9.488 L29.792,6.52 L32.032,6.52 L32.032,5.008 L29.792,5.008 L29.792,2.404 L32.704,2.404 L32.704,0.892 L28.056,0.892 L28.056,11 L32.9,11 Z M36.428,11.14 C38.052,11.14 39.172,10.216 39.172,8.55 C39.172,5.806 35.644,4.98 35.644,3.258 C35.644,2.628 35.952,2.264 36.512,2.264 C36.904,2.264 37.366,2.516 37.436,3.384 L39.088,3.202 C38.934,1.774 38.094,0.752 36.68,0.752 C34.972,0.752 33.992,1.662 33.992,3.272 C33.992,6.17 37.52,6.702 37.52,8.704 C37.52,9.306 37.114,9.628 36.512,9.628 C35.952,9.628 35.546,9.124 35.476,8.102 L33.824,8.34 C33.894,9.852 34.818,11.14 36.428,11.14 Z M42.644,11.14 C44.268,11.14 45.388,10.216 45.388,8.55 C45.388,5.806 41.86,4.98 41.86,3.258 C41.86,2.628 42.168,2.264 42.728,2.264 C43.12,2.264 43.582,2.516 43.652,3.384 L45.304,3.202 C45.15,1.774 44.31,0.752 42.896,0.752 C41.188,0.752 40.208,1.662 40.208,3.272 C40.208,6.17 43.736,6.702 43.736,8.704 C43.736,9.306 43.33,9.628 42.728,9.628 C42.168,9.628 41.762,9.124 41.692,8.102 L40.04,8.34 C40.11,9.852 41.034,11.14 42.644,11.14 Z M48.678,11 L48.678,0.892 L46.942,0.892 L46.942,11 L48.678,11 Z M53.256,11.14 C55.076,11.14 55.916,9.978 55.916,8.55 L55.916,3.342 C55.916,1.914 55.076,0.752 53.256,0.752 C51.436,0.752 50.596,1.914 50.596,3.342 L50.596,8.55 C50.596,9.978 51.436,11.14 53.256,11.14 Z M53.256,9.628 C52.556,9.628 52.332,9.264 52.332,8.508 L52.332,3.384 C52.332,2.628 52.556,2.264 53.256,2.264 C53.956,2.264 54.18,2.628 54.18,3.384 L54.18,8.508 C54.18,9.264 53.956,9.628 53.256,9.628 Z M59.164,11 L59.164,4.686 L59.192,4.686 L61.404,11 L62.916,11 L62.916,0.892 L61.348,0.892 L61.348,6.674 L61.32,6.674 L59.206,0.892 L57.596,0.892 L57.596,11 L59.164,11 Z M65.604,11 L65.912,8.76 L67.816,8.76 L68.124,11 L69.804,11 L67.942,0.892 L65.786,0.892 L63.924,11 L65.604,11 Z M67.564,7.248 L66.164,7.248 L66.85,2.908 L66.878,2.908 L67.564,7.248 Z M75.194,11 L75.194,9.488 L72.464,9.488 L72.464,0.892 L70.728,0.892 L70.728,11 L75.194,11 Z" id="PROFESSIONAL" fill="#E31257"></path>
                    <path d="M6.4,35 C9.925,35 11.25,32.75 11.25,29.775 C11.25,27.45 10.325,26.2 8.75,25.5 C10.25,24.9 10.9,23.275 10.9,21.725 C10.9,18.65 9.425,16.95 6.1,16.95 L1.5,16.95 L1.5,35 L6.4,35 Z M5.725,24.35 L4.6,24.35 L4.6,19.5 L5.775,19.5 C7.15,19.5 7.8,20.375 7.8,22.05 C7.8,23.55 6.9,24.35 5.725,24.35 Z M5.9,32.45 L4.6,32.45 L4.6,26.9 L5.6,26.9 C7.45,26.9 8.15,27.825 8.15,29.675 C8.15,31.5 7.55,32.45 5.9,32.45 Z M17.1,35 L17.1,27.6 C17.65,27.6 18.3,27.575 18.7,27.525 L20.9,35 L24.05,35 L21.425,26.825 C22.475,26.35 23.6,25.175 23.6,22.275 C23.6,18.425 21.825,16.95 18.35,16.95 L14,16.95 L14,35 L17.1,35 Z M18.2,25.05 L17.1,25.05 L17.1,19.5 L18.2,19.5 C19.875,19.5 20.5,20.125 20.5,22.275 C20.5,24.425 19.875,25.05 18.2,25.05 Z M30.025,35 L30.025,16.95 L26.925,16.95 L26.925,35 L30.025,35 Z M38.05,35 C41.25,35 42.95,33.25 42.95,29.55 L42.95,22.4 C42.95,18.7 41.25,16.95 38.05,16.95 L33.45,16.95 L33.45,35 L38.05,35 Z M37.625,32.45 L36.55,32.45 L36.55,19.5 L37.625,19.5 C39.275,19.5 39.85,20.125 39.85,22.025 L39.85,29.925 C39.85,31.825 39.275,32.45 37.625,32.45 Z M54.6,35 L54.6,32.3 L49.05,32.3 L49.05,27 L53.05,27 L53.05,24.3 L49.05,24.3 L49.05,19.65 L54.25,19.65 L54.25,16.95 L45.95,16.95 L45.95,35 L54.6,35 Z M5.35,58.25 C8.25,58.25 10.25,56.6 10.25,53.625 C10.25,48.725 3.95,47.25 3.95,44.175 C3.95,43.05 4.5,42.4 5.5,42.4 C6.2,42.4 7.025,42.85 7.15,44.4 L10.1,44.075 C9.825,41.525 8.325,39.7 5.8,39.7 C2.75,39.7 1,41.325 1,44.2 C1,49.375 7.3,50.325 7.3,53.9 C7.3,54.975 6.575,55.55 5.5,55.55 C4.5,55.55 3.775,54.65 3.65,52.825 L0.7,53.25 C0.825,55.95 2.475,58.25 5.35,58.25 Z M21.25,58 L21.25,55.3 L15.7,55.3 L15.7,50 L19.7,50 L19.7,47.3 L15.7,47.3 L15.7,42.65 L20.9,42.65 L20.9,39.95 L12.6,39.95 L12.6,58 L21.25,58 Z M25.5,58 L26.05,54 L29.45,54 L30,58 L33,58 L29.675,39.95 L25.825,39.95 L22.5,58 L25.5,58 Z M29,51.3 L26.5,51.3 L27.725,43.55 L27.775,43.55 L29,51.3 Z M37.9,58 L37.9,50.6 C38.45,50.6 39.1,50.575 39.5,50.525 L41.7,58 L44.85,58 L42.225,49.825 C43.275,49.35 44.4,48.175 44.4,45.275 C44.4,41.425 42.625,39.95 39.15,39.95 L34.8,39.95 L34.8,58 L37.9,58 Z M39,48.05 L37.9,48.05 L37.9,42.5 L39,42.5 C40.675,42.5 41.3,43.125 41.3,45.275 C41.3,47.425 40.675,48.05 39,48.05 Z M52.05,58.25 C55.15,58.25 56.65,56.175 56.65,53.625 L56.65,51.55 L53.55,51.55 L53.55,53.725 C53.55,54.9 53.175,55.55 52.05,55.55 C50.8,55.55 50.4,54.9 50.4,53.55 L50.4,44.4 C50.4,43.05 50.8,42.4 52.05,42.4 C52.85,42.4 53.55,43.05 53.55,44.575 L53.55,45.975 L56.65,45.975 L56.65,44.65 C56.65,41.95 55.15,39.7 52.05,39.7 C48.8,39.7 47.3,41.775 47.3,44.325 L47.3,53.625 C47.3,56.175 48.8,58.25 52.05,58.25 Z M62.9,58 L62.9,50 L66.2,50 L66.2,58 L69.3,58 L69.3,39.95 L66.2,39.95 L66.2,47.3 L62.9,47.3 L62.9,39.95 L59.8,39.95 L59.8,58 L62.9,58 Z" id="BRIDESEARCH" fill="#FFFFFF"></path>
                </g>
            </g>
        </g>
    </g>
</svg>