<?xml version="1.0" encoding="UTF-8"?>
<svg width="47px" height="55px" viewBox="0 0 47 55" version="1.1" xmlns="http://www.w3.org/2000/svg" xmlns:xlink="http://www.w3.org/1999/xlink">
    <title>community</title>
    <g id="main" stroke="none" stroke-width="1" fill="none" fill-rule="evenodd">
        <g id="bride-about-icons" transform="translate(-738.000000, -114.000000)" fill="#E31257" fill-rule="nonzero">
            <path d="M753.803711,124.106445 C753.968424,124.106445 754.073242,124.016602 754.118164,123.836914 C754.297852,122.683919 754.477539,121.845378 754.657227,121.321289 C754.836914,120.797201 755.192546,120.434082 755.724121,120.231934 C756.255697,120.029785 757.112956,119.83138 758.295898,119.636719 C758.505534,119.576823 758.610352,119.464518 758.610352,119.299805 C758.610352,119.120117 758.505534,119.007812 758.295898,118.962891 C757.412435,118.783203 756.727376,118.61849 756.240723,118.46875 C755.754069,118.31901 755.394694,118.113118 755.162598,117.851074 C754.930501,117.58903 754.74707,117.214681 754.612305,116.728027 C754.477539,116.241374 754.312826,115.586263 754.118164,114.762695 C754.073242,114.583008 753.968424,114.493164 753.803711,114.493164 C753.638997,114.493164 753.53418,114.583008 753.489258,114.762695 C753.294596,115.586263 753.129883,116.241374 752.995117,116.728027 C752.860352,117.214681 752.676921,117.58903 752.444824,117.851074 C752.212728,118.113118 751.853353,118.31901 751.366699,118.46875 C750.880046,118.61849 750.1875,118.783203 749.289062,118.962891 C749.094401,119.007812 748.99707,119.120117 748.99707,119.299805 C748.99707,119.464518 749.094401,119.576823 749.289062,119.636719 C750.1875,119.801432 750.891276,119.958659 751.400391,120.108398 C751.909505,120.258138 752.287598,120.460286 752.534668,120.714844 C752.781738,120.969401 752.968913,121.340007 753.096191,121.82666 C753.22347,122.313314 753.354492,122.983398 753.489258,123.836914 C753.53418,124.016602 753.638997,124.106445 753.803711,124.106445 Z M767.796875,129.564453 C768.051432,129.564453 768.193685,129.429688 768.223633,129.160156 C768.433268,127.857422 768.624186,126.842936 768.796387,126.116699 C768.968587,125.390462 769.238118,124.847656 769.60498,124.488281 C769.971842,124.128906 770.529622,123.851888 771.27832,123.657227 C772.027018,123.462565 773.060221,123.245443 774.37793,123.005859 C774.662435,122.960938 774.804688,122.818685 774.804688,122.579102 C774.804688,122.339518 774.677409,122.197266 774.422852,122.152344 C773.090169,121.882812 772.049479,121.650716 771.300781,121.456055 C770.552083,121.261393 769.99056,120.988118 769.616211,120.63623 C769.241862,120.284342 768.968587,119.749023 768.796387,119.030273 C768.624186,118.311523 768.433268,117.300781 768.223633,115.998047 C768.208659,115.728516 768.066406,115.59375 767.796875,115.59375 C767.557292,115.59375 767.422526,115.721029 767.392578,115.975586 C767.197917,117.293294 767.014486,118.315267 766.842285,119.041504 C766.670085,119.767741 766.400553,120.31429 766.033691,120.681152 C765.666829,121.048014 765.109049,121.325033 764.360352,121.512207 C763.611654,121.699382 762.563477,121.91276 761.21582,122.152344 C761.096029,122.167318 761.002441,122.21224 760.935059,122.287109 C760.867676,122.361979 760.833984,122.45931 760.833984,122.579102 C760.833984,122.818685 760.961263,122.960938 761.21582,123.005859 C762.563477,123.260417 763.611654,123.48877 764.360352,123.690918 C765.109049,123.893066 765.666829,124.173828 766.033691,124.533203 C766.400553,124.892578 766.670085,125.431641 766.842285,126.150391 C767.014486,126.869141 767.197917,127.879883 767.392578,129.182617 C767.407552,129.302409 767.452474,129.395996 767.527344,129.463379 C767.602214,129.530762 767.692057,129.564453 767.796875,129.564453 Z M768.549316,166.827148 C769.630965,166.503006 770.668676,166.042907 771.662449,165.44685 L771.892,165.305 L772.28142,165.245978 C773.342179,165.068772 774.381673,164.7498 775.399902,164.289062 C777.054525,163.540365 778.600586,162.447266 780.038086,161.009766 C782.508789,158.554036 783.950033,155.806315 784.361816,152.766602 C784.7736,149.726888 784.163411,146.492513 782.53125,143.063477 L777.5,132.529297 C777.110677,131.720703 776.601562,131.114258 775.972656,130.709961 C775.34375,130.305664 774.669922,130.103516 773.951172,130.103516 C773.561849,130.103516 773.165039,130.178385 772.760742,130.328125 C772.356445,130.477865 771.98584,130.691243 771.648926,130.968262 C771.312012,131.24528 771.04248,131.593424 770.840332,132.012695 C770.782575,132.132487 770.73307,132.257779 770.691815,132.388572 L770.669,132.467 L770.575792,132.405762 C770.068341,132.101291 769.512641,131.951552 768.908691,131.956543 C768.002767,131.96403 767.205404,132.312174 766.516602,133.000977 C766.413448,133.107458 766.318797,133.219116 766.232651,133.33595 L766.118,133.502 L759.845703,127.228516 C759.037109,126.419922 758.187337,126.011882 757.296387,126.004279 C756.405436,125.996908 755.593099,126.352539 754.859375,127.071289 C754.544922,127.370768 754.309082,127.715169 754.151855,128.104492 L754.067852,128.339883 L754.067852,128.339883 L754.005,128.576 L753.919471,128.5157 C753.338942,128.132136 752.735089,127.935171 752.10791,127.924805 C751.201986,127.909831 750.389648,128.261719 749.670898,128.980469 C749.371419,129.279948 749.139323,129.624349 748.974609,130.013672 C748.809896,130.402995 748.735026,130.807292 748.75,131.226562 C747.971354,130.552734 747.144043,130.197103 746.268066,130.159668 C745.39209,130.122233 744.602214,130.462891 743.898438,131.181641 C743.194661,131.885417 742.85026,132.690267 742.865234,133.596191 C742.880208,134.502116 743.217122,135.336914 743.875977,136.100586 C743.037435,136.055664 742.303711,136.347656 741.674805,136.976562 C740.986003,137.665365 740.652832,138.455241 740.675293,139.346191 C740.697754,140.237142 741.105794,141.07194 741.899414,141.850586 L743.831055,143.782227 C743.381836,143.752279 742.962565,143.823405 742.573242,143.995605 C742.183919,144.167806 741.832031,144.411133 741.517578,144.725586 C740.828776,145.414388 740.499349,146.211751 740.529297,147.117676 C740.559245,148.0236 740.971029,148.865885 741.764648,149.644531 L754.365234,162.290039 C756.671224,164.581055 759.037109,166.082194 761.462891,166.793457 C763.888672,167.50472 766.250814,167.515951 768.549316,166.827148 Z M767.886719,142.367188 L755.392,129.852 L755.387207,129.800293 L755.387207,129.800293 C755.364746,129.298665 755.555664,128.85319 755.959961,128.463867 C756.349284,128.074544 756.779785,127.902344 757.251465,127.947266 C757.723145,127.992188 758.176107,128.224284 758.610352,128.643555 L765.611,135.624 L765.618441,135.706826 C765.666506,136.119072 765.786205,136.549805 765.977539,136.999023 L768.15625,142.120117 C768.201172,142.224935 768.193685,142.314779 768.133789,142.389648 C768.058919,142.464518 767.976562,142.457031 767.886719,142.367188 Z M761.822266,164.929199 C759.710938,164.262858 757.629557,162.903971 755.578125,160.852539 L743.157227,148.431641 C742.737956,148.01237 742.509603,147.563151 742.472168,147.083984 C742.434733,146.604818 742.610677,146.170573 743,145.78125 C743.389323,145.391927 743.834798,145.204753 744.336426,145.219727 C744.838053,145.234701 745.298503,145.451823 745.717773,145.871094 L753.174805,153.328125 C753.399414,153.552734 753.638997,153.661296 753.893555,153.653809 C754.148112,153.646322 754.357747,153.560221 754.522461,153.395508 C754.687174,153.230794 754.773275,153.021159 754.780762,152.766602 C754.788249,152.512044 754.679688,152.272461 754.455078,152.047852 L743.179688,140.772461 C742.775391,140.35319 742.550781,139.907715 742.505859,139.436035 C742.460938,138.964355 742.633138,138.526367 743.022461,138.12207 C743.411784,137.747721 743.857259,137.568034 744.358887,137.583008 C744.860514,137.597982 745.328451,137.807617 745.762695,138.211914 L756.251953,148.723633 C756.476562,148.963216 756.712402,149.075521 756.959473,149.060547 C757.206543,149.045573 757.419922,148.955729 757.599609,148.791016 C757.764323,148.626302 757.850423,148.416667 757.85791,148.162109 C757.865397,147.907552 757.756836,147.660482 757.532227,147.420898 L745.291016,135.202148 C744.871745,134.782878 744.643392,134.314941 744.605957,133.79834 C744.568522,133.281738 744.751953,132.821289 745.15625,132.416992 C745.515625,132.057617 745.94987,131.900391 746.458984,131.945312 C746.968099,131.990234 747.432292,132.222331 747.851562,132.641602 L760.092773,144.882812 C760.287435,145.077474 760.512044,145.186035 760.766602,145.208496 C761.021159,145.230957 761.238281,145.144857 761.417969,144.950195 C761.61263,144.755534 761.702474,144.530924 761.6875,144.276367 C761.672526,144.02181 761.567708,143.797201 761.373047,143.602539 L750.883789,133.113281 C750.464518,132.679036 750.243652,132.2111 750.221191,131.709473 C750.19873,131.207845 750.382161,130.76237 750.771484,130.373047 C751.160807,129.983724 751.595052,129.80778 752.074219,129.845215 C752.553385,129.88265 753.002604,130.111003 753.421875,130.530273 L767.931641,145.040039 C768.246094,145.354492 768.579264,145.507975 768.931152,145.500488 C769.28304,145.493001 769.59375,145.354492 769.863281,145.084961 C770.087891,144.845378 770.233887,144.575846 770.30127,144.276367 C770.368652,143.976888 770.319987,143.625 770.155273,143.220703 L767.392578,136.4375 C767.152995,135.86849 767.108073,135.355632 767.257812,134.898926 C767.407552,134.44222 767.707031,134.101562 768.15625,133.876953 C768.650391,133.652344 769.11084,133.6486 769.537598,133.865723 C769.964355,134.082845 770.319987,134.483398 770.604492,135.067383 L775.703125,145.758789 C777.185547,148.873372 777.713379,151.76709 777.286621,154.439941 C776.859863,157.112793 775.59082,159.504883 773.479492,161.616211 C771.787435,163.308268 769.949382,164.450033 767.965332,165.041504 C765.981283,165.632975 763.933594,165.59554 761.822266,164.929199 Z M775.697,162.018 L775.727867,161.984184 C777.664538,159.770729 778.813029,157.330851 779.17334,154.664551 C779.585124,151.61735 778.982422,148.386719 777.365234,144.972656 L772.364,134.55 L772.357344,134.531914 C772.251927,134.242018 772.199219,133.971289 772.199219,133.719727 C772.199219,133.24056 772.352702,132.836263 772.659668,132.506836 C772.966634,132.177409 773.412109,132.012695 773.996094,132.012695 C774.804688,132.012695 775.411133,132.431966 775.81543,133.270508 L780.869141,143.827148 C782.366536,146.941732 782.901855,149.839193 782.475098,152.519531 C782.04834,155.19987 780.779297,157.588216 778.667969,159.68457 C777.732096,160.62793 776.756917,161.397217 775.742432,161.992432 L775.697,162.018 Z M743.898438,168.421875 C744.078125,168.421875 744.19043,168.324544 744.235352,168.129883 C744.385091,167.09668 744.534831,166.284342 744.68457,165.692871 C744.83431,165.1014 745.062663,164.648438 745.369629,164.333984 C745.676595,164.019531 746.137044,163.776204 746.750977,163.604004 C747.364909,163.431803 748.210938,163.248372 749.289062,163.053711 C749.498698,163.008789 749.603516,162.888997 749.603516,162.694336 C749.603516,162.499674 749.498698,162.38737 749.289062,162.357422 C748.210938,162.132812 747.379883,161.926921 746.795898,161.739746 C746.211914,161.552572 745.777669,161.301758 745.493164,160.987305 C745.208659,160.672852 744.987793,160.227376 744.830566,159.650879 C744.67334,159.074382 744.474935,158.277018 744.235352,157.258789 C744.19043,157.064128 744.078125,156.966797 743.898438,156.966797 C743.71875,156.966797 743.598958,157.064128 743.539062,157.258789 C743.314453,158.277018 743.127279,159.074382 742.977539,159.650879 C742.827799,160.227376 742.610677,160.672852 742.326172,160.987305 C742.041667,161.301758 741.607422,161.552572 741.023438,161.739746 C740.439453,161.926921 739.600911,162.132812 738.507812,162.357422 C738.283203,162.38737 738.170898,162.499674 738.170898,162.694336 C738.170898,162.888997 738.283203,163.008789 738.507812,163.053711 C739.600911,163.27832 740.450684,163.476725 741.057129,163.648926 C741.663574,163.821126 742.116536,164.064453 742.416016,164.378906 C742.715495,164.693359 742.936361,165.138835 743.078613,165.715332 C743.220866,166.291829 743.374349,167.09668 743.539062,168.129883 C743.598958,168.324544 743.71875,168.421875 743.898438,168.421875 Z" id="community"></path>
        </g>
    </g>
</svg>