<?xml version="1.0" encoding="UTF-8"?>
<svg width="17px" height="16px" viewBox="0 0 17 16" version="1.1" xmlns="http://www.w3.org/2000/svg" xmlns:xlink="http://www.w3.org/1999/xlink">
    <title>seaкch</title>
    <g id="Page-1" stroke="none" stroke-width="1" fill="none" fill-rule="evenodd">
        <g id="pro-bride-search-site-v1" transform="translate(-999.000000, -762.000000)">
            <g id="Group-4" transform="translate(280.000000, 726.000000)">
                <g id="Group" transform="translate(716.000000, 32.000000)">
                    <rect id="Rectangle" x="0" y="0" width="24" height="24"></rect>
                    <path d="M18.59375,19.9511719 C18.8046875,19.9511719 18.9921875,19.9042969 19.15625,19.8105469 C19.3203125,19.7167969 19.4477539,19.5864258 19.5385742,19.4194336 C19.6293945,19.2524414 19.6748047,19.0664062 19.6748047,18.8613281 C19.6748047,18.7207031 19.6499023,18.5830078 19.6000977,18.4482422 C19.550293,18.3134766 19.4726562,18.1962891 19.3671875,18.0966797 L19.3671875,18.0966797 L15.611,14.327 L15.7537842,14.1262207 C15.9279175,13.868042 16.0837173,13.5970917 16.2211838,13.3133698 L16.3525391,13.0253906 C16.6865234,12.2460938 16.8535156,11.4111328 16.8535156,10.5205078 C16.8535156,9.62988281 16.6865234,8.79345703 16.3525391,8.01123047 C16.0185547,7.22900391 15.5541992,6.54052734 14.9594727,5.94580078 C14.3647461,5.35107422 13.6762695,4.88525391 12.894043,4.54833984 C12.1118164,4.21142578 11.2753906,4.04296875 10.3847656,4.04296875 C9.49414062,4.04296875 8.65917969,4.21142578 7.87988281,4.54833984 C7.10058594,4.88525391 6.41210938,5.35107422 5.81445312,5.94580078 C5.21679688,6.54052734 4.75097656,7.22753906 4.41699219,8.00683594 C4.08300781,8.78613281 3.91601562,9.62402344 3.91601562,10.5205078 C3.91601562,11.4111328 4.08300781,12.2460938 4.41699219,13.0253906 C4.75097656,13.8046875 5.21533203,14.4931641 5.81005859,15.0908203 C6.40478516,15.6884766 7.09326172,16.1542969 7.87548828,16.4882812 C8.65771484,16.8222656 9.49414062,16.9892578 10.3847656,16.9892578 C11.2753906,16.9892578 12.1118164,16.8222656 12.894043,16.4882812 C13.2851562,16.3212891 13.652832,16.1213379 13.9970703,15.8884277 L14.037,15.86 L17.8203125,19.6347656 C17.8994141,19.7182617 17.9867554,19.7844543 18.0823364,19.8333435 L18.1806641,19.8764648 C18.3154297,19.9262695 18.453125,19.9511719 18.59375,19.9511719 Z M10.3847656,15.4160156 C9.71679688,15.4160156 9.08544922,15.2885742 8.49072266,15.0336914 C7.89599609,14.7788086 7.37451172,14.4257812 6.92626953,13.9746094 C6.47802734,13.5234375 6.12646484,13.003418 5.87158203,12.4145508 C5.61669922,11.8256836 5.48925781,11.1943359 5.48925781,10.5205078 C5.48925781,9.85253906 5.61669922,9.22265625 5.87158203,8.63085938 C6.12646484,8.0390625 6.47802734,7.51757812 6.92626953,7.06640625 C7.37451172,6.61523438 7.89599609,6.26074219 8.49072266,6.00292969 C9.08544922,5.74511719 9.71679688,5.61621094 10.3847656,5.61621094 C11.0585938,5.61621094 11.6914062,5.74511719 12.2832031,6.00292969 C12.875,6.26074219 13.3950195,6.61523438 13.8432617,7.06640625 C14.2915039,7.51757812 14.6430664,8.0390625 14.8979492,8.63085938 C15.152832,9.22265625 15.2802734,9.85253906 15.2802734,10.5205078 C15.2802734,11.1943359 15.152832,11.8256836 14.8979492,12.4145508 C14.6430664,13.003418 14.2915039,13.5234375 13.8432617,13.9746094 C13.3950195,14.4257812 12.875,14.7788086 12.2832031,15.0336914 C11.6914062,15.2885742 11.0585938,15.4160156 10.3847656,15.4160156 Z" id="􀊫" fill="#FFFFFF" fill-rule="nonzero"></path>
                </g>
            </g>
        </g>
    </g>
</svg>