<?xml version="1.0" encoding="UTF-8"?>
<svg width="46px" height="46px" viewBox="0 0 46 46" version="1.1" xmlns="http://www.w3.org/2000/svg" xmlns:xlink="http://www.w3.org/1999/xlink">
    <title>simple</title>
    <g id="main" stroke="none" stroke-width="1" fill="none" fill-rule="evenodd">
        <g id="bride-about-icons" transform="translate(-137.000000, -120.000000)" fill="#E31257" fill-rule="nonzero">
            <path d="M173.770508,122.174805 C173.74056,121.620768 173.560872,121.179036 173.231445,120.849609 C172.902018,120.520182 172.430339,120.355469 171.816406,120.355469 L148.165039,120.355469 C147.566081,120.355469 147.098145,120.520182 146.76123,120.849609 C146.424316,121.179036 146.240885,121.620768 146.210938,122.174805 L173.770508,122.174805 Z M177.813477,127.363281 C177.738607,126.764323 177.532715,126.2889 177.195801,125.937012 C176.858887,125.585124 176.36849,125.40918 175.724609,125.40918 L144.256836,125.40918 C143.612956,125.40918 143.126302,125.585124 142.796875,125.937012 C142.467448,126.2889 142.265299,126.764323 142.19043,127.363281 L177.813477,127.363281 Z M176.488281,165.816406 C178.464844,165.816406 179.958496,165.311035 180.969238,164.300293 C181.97998,163.289551 182.485352,161.803385 182.485352,159.841797 L182.485352,137.088867 C182.485352,135.142253 181.97998,133.663574 180.969238,132.652832 C179.958496,131.64209 178.464844,131.136719 176.488281,131.136719 L143.493164,131.136719 C141.501628,131.136719 140.004232,131.638346 139.000977,132.641602 C137.997721,133.644857 137.496094,135.127279 137.496094,137.088867 L137.496094,159.841797 C137.496094,161.818359 137.997721,163.308268 139.000977,164.311523 C140.004232,165.314779 141.501628,165.816406 143.493164,165.816406 L176.488281,165.816406 Z M176.443359,163.660156 L173.178,163.661 L173.120162,163.428957 C172.864243,162.498839 172.455862,161.606342 171.89502,160.751465 C171.123861,159.576009 170.139323,158.535319 168.941406,157.629395 C167.74349,156.72347 166.380859,156.008464 164.853516,155.484375 C163.326172,154.960286 161.701497,154.698242 159.979492,154.698242 C158.272461,154.698242 156.659017,154.960286 155.13916,155.484375 C153.619303,156.008464 152.256673,156.72347 151.05127,157.629395 C149.845866,158.535319 148.857585,159.576009 148.086426,160.751465 C147.525583,161.606342 147.117202,162.498839 146.861284,163.428957 L146.802,163.661 L143.538086,163.660156 C142.265299,163.660156 141.295736,163.330729 140.629395,162.671875 C139.963053,162.013021 139.629883,161.032227 139.629883,159.729492 L139.629883,137.201172 C139.629883,135.898438 139.963053,134.917643 140.629395,134.258789 C141.295736,133.599935 142.265299,133.270508 143.538086,133.270508 L176.443359,133.270508 C177.686198,133.270508 178.648275,133.599935 179.32959,134.258789 C180.010905,134.917643 180.351562,135.898438 180.351562,137.201172 L180.351562,159.729492 C180.351562,161.032227 180.010905,162.013021 179.32959,162.671875 C178.648275,163.330729 177.686198,163.660156 176.443359,163.660156 Z M159.979492,151.553711 C161.192383,151.568685 162.285482,151.261719 163.258789,150.632812 C164.232096,150.003906 165.010742,149.157878 165.594727,148.094727 C166.178711,147.031576 166.470703,145.826172 166.470703,144.478516 C166.470703,143.205729 166.178711,142.041504 165.594727,140.98584 C165.010742,139.930176 164.232096,139.087891 163.258789,138.458984 C162.285482,137.830078 161.192383,137.515625 159.979492,137.515625 C158.781576,137.515625 157.69222,137.830078 156.711426,138.458984 C155.730632,139.087891 154.951986,139.930176 154.375488,140.98584 C153.798991,142.041504 153.518229,143.205729 153.533203,144.478516 C153.533203,145.826172 153.821452,147.031576 154.397949,148.094727 C154.974447,149.157878 155.749349,150.000163 156.722656,150.621582 C157.695964,151.243001 158.781576,151.553711 159.979492,151.553711 Z" id="simple"></path>
        </g>
    </g>
</svg>