<?xml version="1.0" encoding="UTF-8"?>
<svg width="45px" height="45px" viewBox="0 0 45 45" version="1.1" xmlns="http://www.w3.org/2000/svg" xmlns:xlink="http://www.w3.org/1999/xlink">
    <title>smart</title>
    <g id="main" stroke="none" stroke-width="1" fill="none" fill-rule="evenodd">
        <g id="bride-about-icons" transform="translate(-437.000000, -121.000000)" fill="#E31257" fill-rule="nonzero">
            <path d="M465.919922,163.839844 L465.919922,161.706055 L454.262695,161.706055 C452.989909,161.706055 452.020345,161.372884 451.354004,160.706543 C450.687663,160.040202 450.354492,159.055664 450.354492,157.75293 L450.354492,136.594727 C450.354492,135.306966 450.687663,134.329915 451.354004,133.663574 C452.020345,132.997233 452.989909,132.664062 454.262695,132.664062 L475.443359,132.664062 C476.686198,132.664062 477.652018,132.997233 478.34082,133.663574 C479.029622,134.329915 479.374023,135.306966 479.374023,136.594727 L479.374023,149.240234 L481.507812,151.463867 L481.507812,136.482422 C481.507812,134.535807 481.002441,133.057129 479.991699,132.046387 C478.980957,131.035645 477.487305,130.530273 475.510742,130.530273 L471.22,130.531 L471.220703,127.610352 C471.220703,125.663737 470.715332,124.181315 469.70459,123.163086 C468.693848,122.144857 467.200195,121.635742 465.223633,121.635742 L461.472656,121.635742 L461.472656,123.769531 L465.178711,123.769531 C466.421549,123.769531 467.383626,124.102702 468.064941,124.769043 C468.746257,125.435384 469.086914,126.419922 469.086914,127.722656 L469.086,130.531 L454.217773,130.530273 C452.226237,130.530273 450.725098,131.031901 449.714355,132.035156 C448.703613,133.038411 448.198242,134.520833 448.198242,136.482422 L448.198,152.812 L443.975586,152.811523 C442.702799,152.811523 441.733236,152.478353 441.066895,151.812012 C440.400553,151.145671 440.067383,150.161133 440.067383,148.858398 L440.067383,145.152344 L437.933594,145.152344 L437.933594,148.970703 C437.933594,150.947266 438.435221,152.437174 439.438477,153.44043 C440.441732,154.443685 441.939128,154.945312 443.930664,154.945312 L448.198,154.946 L448.198242,157.865234 C448.198242,159.841797 448.703613,161.331706 449.714355,162.334961 C450.725098,163.338216 452.226237,163.839844 454.217773,163.839844 L465.919922,163.839844 Z M459.541016,123.769531 L459.541016,121.635742 L449.478516,121.635742 L449.478516,123.769531 L459.541016,123.769531 Z M440.067383,131.293945 L440.067383,127.722656 C440.067383,126.419922 440.400553,125.435384 441.066895,124.769043 C441.733236,124.102702 442.702799,123.769531 443.975586,123.769531 L447.546875,123.769531 L447.546875,121.635742 L443.930664,121.635742 C441.939128,121.635742 440.441732,122.13737 439.438477,123.140625 C438.435221,124.14388 437.933594,125.633789 437.933594,127.610352 L437.933594,131.293945 L440.067383,131.293945 Z M440.067383,143.220703 L440.067383,133.225586 L437.933594,133.225586 L437.933594,143.220703 L440.067383,143.220703 Z M476.229492,165.681641 L477.84668,165.007812 C478.011393,164.947917 478.123698,164.835612 478.183594,164.670898 C478.24349,164.506185 478.236003,164.348958 478.161133,164.199219 L474.140625,154.833008 L479.082031,154.87793 C479.396484,154.87793 479.613607,154.750651 479.733398,154.496094 C479.85319,154.241536 479.808268,153.994466 479.598633,153.754883 L468.008789,141.266602 C467.799154,141.041992 467.555827,140.98584 467.278809,141.098145 C467.00179,141.210449 466.863281,141.416341 466.863281,141.71582 L466.975586,158.741211 C466.975586,159.055664 467.117839,159.261556 467.402344,159.358887 C467.686849,159.456217 467.933919,159.400065 468.143555,159.19043 L471.490234,155.753906 L475.398438,165.322266 C475.458333,165.486979 475.566895,165.603027 475.724121,165.67041 C475.881348,165.737793 476.049805,165.741536 476.229492,165.681641 Z" id="smart"></path>
        </g>
    </g>
</svg>